<?xml version="1.0" encoding="utf-8"?>
<!-- Generator: Adobe Illustrator 19.0.0, SVG Export Plug-In . SVG Version: 6.00 Build 0)  -->
<svg version="1.1"
	 id="Layer_1" inkscape:version="0.92.2 5c3e80d, 2017-08-06" sodipodi:docname="intralinks.svg" xmlns:rdf="http://www.w3.org/1999/02/22-rdf-syntax-ns#" xmlns:svg="http://www.w3.org/2000/svg" xmlns:inkscape="http://www.inkscape.org/namespaces/inkscape" xmlns:dc="http://purl.org/dc/elements/1.1/" xmlns:cc="http://creativecommons.org/ns#" xmlns:sodipodi="http://sodipodi.sourceforge.net/DTD/sodipodi-0.dtd"
	 xmlns="http://www.w3.org/2000/svg" xmlns:xlink="http://www.w3.org/1999/xlink" x="0px" y="0px"
	 viewBox="-288.1 360.4 153.5 73.6" style="enable-background:new -288.1 360.4 153.5 73.6;" xml:space="preserve">
<style type="text/css">
	.st0{fill:#FCFCFC;}
	.st1{fill:#000202;}
</style>
<rect x="-248.7" y="375.8" class="st0" width="75" height="45.5"/>
<sodipodi:namedview  id="namedview12" inkscape:pageopacity="0" inkscape:pagecheckerboard="true" inkscape:current-layer="Layer_1" inkscape:window-height="480" inkscape:window-maximized="0" inkscape:window-y="0" inkscape:window-x="0" inkscape:pageshadow="2" inkscape:window-width="691" bordercolor="#666666" inkscape:cx="184.39035" gridtolerance="10" objecttolerance="10" guidetolerance="10" showgrid="false" inkscape:cy="-7.9223031" borderopacity="1" pagecolor="#ffffff" inkscape:zoom="0.84285714">
	</sodipodi:namedview>
<path id="path4" inkscape:connector-curvature="0" class="st1" d="M-211.3,434c-14.9,0-29.8,0-44.8,0c-1.5,0-1.9-0.4-1.9-2
	c0-23.2,0-46.4,0-69.6c0-1.5,0.5-2,2-2c29.9,0,59.7,0,89.6,0c1.5,0,1.9,0.4,1.9,1.9c0,23.3,0,46.5,0,69.8c0,1.4-0.4,1.8-1.9,1.8
	C-181.4,434-196.4,434-211.3,434L-211.3,434L-211.3,434z M-217.5,403.6c0.1,0,0.1,0,0.2,0c0.2,0.3,0.3,0.7,0.5,1
	c1.7,3.9,3.4,7.8,5.2,11.7c0.3,0.6,0.9,1.3,1.5,1.6c1.7,0.8,3.4-0.5,3.5-2.5c0-4.7,0-9.5,0-14.2c0-0.2,0-0.4,0-0.6
	c-0.1-0.7-0.5-1.1-1.3-1.2c-0.8,0-1.3,0.4-1.4,1.1c-0.1,0.3,0,0.7,0,1c0,3.9,0,7.8,0,11.7c0,0.3,0,0.5-0.1,1.1
	c-0.3-0.6-0.4-0.8-0.5-1.1c-1.8-4-3.5-8-5.3-12c-0.6-1.3-1.7-1.9-2.9-1.7c-1.3,0.2-2,1.3-2,2.7c0,4.8,0,9.5,0,14.3
	c0,1.1,0.5,1.8,1.4,1.8s1.3-0.6,1.3-1.8c0-2.7,0-5.5,0-8.2C-217.5,406.7-217.5,405.2-217.5,403.6L-217.5,403.6z M-232.1,381.3
	c0.1,0,0.1,0,0.2,0c1.9,4.3,3.8,8.6,5.7,12.8c0.6,1.4,1.7,2,3.1,1.7c1.2-0.3,1.9-1.3,1.9-2.8c0-4.7,0-9.4,0-14.1
	c0-1.2-0.4-1.7-1.3-1.7c-1,0-1.4,0.5-1.4,1.7c0,3.6,0,7.2,0,10.8c0,0.7,0,1.4,0,2.1c-0.4-0.5-0.7-1.1-1-1.7c-1.7-3.8-3.3-7.6-5-11.4
	c-0.5-1.2-1.6-1.7-2.9-1.4c-1.1,0.2-1.9,1.2-1.9,2.5c0,0.4,0,0.8,0,1.2c0,4.5,0,8.9,0,13.4c0,1.1,0.5,1.6,1.5,1.6
	c0.9,0,1.3-0.6,1.3-1.9c0-3.2,0-6.4,0-9.6C-232.1,383.4-232.1,382.3-232.1,381.3z M-198.9,388.5c2.5-1.1,3.6-3.1,3.8-5.6
	c0.2-3-2.1-5.6-5.1-5.6c-1.8,0-3.5,0-5.3,0c-1.2,0-1.9,0.6-1.9,1.8c0,5.1,0,10.2,0,15.4c0,0.9,0.4,1.4,1.3,1.5
	c0.9,0,1.4-0.5,1.5-1.3c0.1-0.4,0-0.9,0-1.3c0-1.4,0-2.8,0-4.2c0.6,0,1,0.1,1.3,0c1-0.2,1.6,0.3,2.1,1.1c1,1.6,2,3.2,3.1,4.8
	c0.6,0.9,1.4,1.2,2.1,0.7c0.7-0.4,0.8-1.2,0.2-2.2C-196.8,391.9-197.8,390.2-198.9,388.5L-198.9,388.5z M-199.3,407.7
	c-0.1-0.1-0.2-0.2-0.3-0.3c0-2.1,0-4.3,0-6.4c0-0.8-0.3-1.3-1-1.5c-1-0.3-1.7,0.5-1.7,1.7c0,3.7,0,7.5,0,11.2c0,1.4,0,2.9,0,4.3
	c0,0.9,0.6,1.5,1.4,1.5c0.7,0,1.3-0.6,1.3-1.4c0-0.6,0-1.1,0-1.7c0-1.6,0-3.2,0-4.8c0.1-0.1,0.2-0.1,0.3-0.2
	c0.4,0.3,0.9,0.5,1.2,0.9c1.6,2.1,3.2,4.2,4.8,6.4c0.7,0.9,1.5,1.1,2.2,0.6c0.6-0.5,0.6-1.4,0-2.2c-1.6-2-3.1-4.1-4.7-6.1
	c-0.5-0.6-0.4-1,0-1.5c1.6-2.1,3.1-4.2,4.6-6.4c0.3-0.4,0.3-1.1,0.2-1.5c-0.1-0.3-0.8-0.7-1.2-0.7s-1,0.4-1.2,0.8
	c-1.6,2.1-3.1,4.3-4.7,6.5C-198.4,407.2-198.9,407.4-199.3,407.7L-199.3,407.7z M-184.9,418.2c0.8,0,1.6,0,2.4,0
	c3.3-0.1,5.2-1.8,5.4-5c0.3-3.2-1.1-5-4.4-5.7c-1-0.2-2-0.4-2.9-0.6c-1.4-0.4-2-1.1-1.9-2.5c0.1-1.3,0.7-2,2.2-2.1
	c1.7-0.1,3.4-0.1,5.1-0.1c0.9,0,1.5-0.6,1.4-1.3c0-0.8-0.6-1.3-1.3-1.3c-2,0-3.9,0-5.9,0.2c-2.5,0.3-4,1.8-4.2,4
	c-0.3,3,0.7,4.8,3.3,5.6c1.4,0.4,2.8,0.7,4.1,1c1.2,0.3,1.6,0.9,1.6,2.2c0,2.1-0.9,3-3,3.1c-1.6,0-3.1,0-4.7,0
	c-0.9,0-1.4,0.6-1.4,1.3c0,0.8,0.6,1.3,1.5,1.3C-186.6,418.2-185.7,418.2-184.9,418.2L-184.9,418.2z M-186.3,380.2
	c0.1,0.4,0.2,0.5,0.2,0.6c1.3,4.6,2.7,9.2,4,13.7c0.3,1.1,1,1.6,1.9,1.3c0.8-0.2,1.1-0.9,0.8-2c-1.4-4.7-2.8-9.5-4.2-14.2
	c-0.2-0.6-0.5-1.2-0.9-1.6c-1.5-1.5-3.8-0.8-4.5,1.3c-1,3.3-2,6.7-3,10c-0.5,1.6-0.9,3.1-1.4,4.7c-0.3,1.3,0.4,2.3,1.6,1.9
	c0.4-0.1,0.9-0.7,1-1.2c0.7-2.1,1.3-4.3,2-6.5C-187.9,385.6-187.1,383.1-186.3,380.2L-186.3,380.2z M-239,415.6c0-0.7,0-1.2,0-1.7
	c0-4.3,0-8.5,0-12.8c0-1-0.6-1.6-1.4-1.6s-1.4,0.6-1.4,1.5c0,5.1,0,10.2,0,15.4c0,1.1,0.7,1.8,1.8,1.9c2.5,0,5,0,7.5,0
	c0.8,0,1.5-0.6,1.4-1.4c-0.1-0.8-0.5-1.3-1.4-1.3c-1.8,0-3.5,0-5.3,0C-238.1,415.6-238.5,415.6-239,415.6z M-215.6,379.9
	c0,1.5,0,2.9,0,4.3c0,3.4,0,6.9,0,10.3c0,0.8,0.4,1.4,1.3,1.4c0.9,0,1.3-0.5,1.4-1.3c0-0.2,0-0.4,0-0.6c0-4.4,0-8.7,0-13.1
	c0-0.3,0-0.6,0.1-1c0.7,0,1.3,0,2,0c0.8-0.1,1.3-0.5,1.3-1.4c0-0.8-0.5-1.2-1.3-1.2c-2.3,0-4.5,0-6.8,0c-0.8,0-1.3,0.5-1.3,1.3
	s0.5,1.3,1.3,1.3C-217,379.9-216.4,379.9-215.6,379.9L-215.6,379.9z M-227.7,402.2c0,0.5,0,0.9,0,1.3c0,4.4,0,8.8,0,13.2
	c0,1,0.5,1.5,1.3,1.5s1.3-0.5,1.3-1.4c0-5.2,0-10.4,0-15.6c0-1-0.7-1.7-1.7-1.8c-1.1-0.1-2.1,0-3.2,0c-0.9,0-1.4,0.6-1.4,1.4
	c0,0.9,0.6,1.3,1.4,1.3C-229.1,402.3-228.5,402.2-227.7,402.2L-227.7,402.2z M-241.9,379.9c0,0.5,0,0.9,0,1.3c0,4.4,0,8.8,0,13.3
	c0,0.9,0.4,1.4,1.3,1.4c0.8,0,1.4-0.4,1.4-1.3c0-5.2,0-10.4,0-15.7c0-1-0.6-1.6-1.6-1.7c-1,0-2.1,0-3.1,0c-0.8,0-1.3,0.5-1.3,1.3
	s0.5,1.3,1.3,1.3C-243.3,379.9-242.7,379.9-241.9,379.9L-241.9,379.9z"/>
<path id="path6" inkscape:connector-curvature="0" class="st1" d="M-204.6,379.9c1.6,0,3.1,0,4.5,0c0.3,0,0.7,0.1,0.9,0.3
	c1.2,0.6,1.6,2.1,1.1,3.8c-0.5,1.8-1.3,2.5-2.7,2.5c-1.3,0-2.5,0-3.9,0C-204.6,384.3-204.6,382.1-204.6,379.9L-204.6,379.9z"/>
</svg>
